<svg width="16" height="16" viewBox="0 0 16 16" fill="none" xmlns="http://www.w3.org/2000/svg">
<path d="M13.5535 2.77557C12.5178 2.29099 11.4104 1.93881 10.2526 1.73828C10.1104 1.99536 9.94429 2.34112 9.82976 2.61618C8.599 2.43109 7.37956 2.43109 6.17144 2.61618C6.05693 2.34112 5.88704 1.99536 5.74357 1.73828C4.58454 1.93881 3.47584 2.29228 2.44013 2.77813C0.351095 5.93494 -0.215207 9.01333 0.0679444 12.048C1.4535 13.0827 2.79627 13.7113 4.11638 14.1226C4.44233 13.674 4.73302 13.1971 4.98345 12.6945C4.5065 12.5133 4.04969 12.2897 3.61805 12.03C3.73256 11.9452 3.84457 11.8565 3.95279 11.7652C6.58546 12.9966 9.44593 12.9966 12.0472 11.7652C12.1566 11.8565 12.2686 11.9452 12.3819 12.03C11.949 12.2909 11.4909 12.5146 11.014 12.6958C11.2644 13.1971 11.5538 13.6753 11.881 14.1238C13.2024 13.7125 14.5464 13.084 15.932 12.048C16.2642 8.53004 15.3644 5.47992 13.5535 2.77557ZM5.34212 10.1817C4.55181 10.1817 3.9037 9.44392 3.9037 8.54546C3.9037 7.64701 4.53797 6.90794 5.34212 6.90794C6.14628 6.90794 6.79437 7.64571 6.78053 8.54546C6.78178 9.44392 6.14628 10.1817 5.34212 10.1817ZM10.6578 10.1817C9.86752 10.1817 9.21941 9.44392 9.21941 8.54546C9.21941 7.64701 9.85366 6.90794 10.6578 6.90794C11.462 6.90794 12.1101 7.64571 12.0962 8.54546C12.0962 9.44392 11.462 10.1817 10.6578 10.1817Z" fill="#0F1A17"/>
</svg>
