<svg width="17" height="17" viewBox="0 0 17 17" fill="none" xmlns="http://www.w3.org/2000/svg">
<path d="M8.05158 8.80819C8.46578 8.81123 8.80402 8.47791 8.80706 8.06371C8.81009 7.64951 8.47678 7.31127 8.06258 7.30823C7.64837 7.3052 7.31013 7.63851 7.3071 8.05271C7.30406 8.46692 7.63738 8.80516 8.05158 8.80819Z" fill="#0F1A17"/>
<path d="M5.30158 8.78866C5.71578 8.7917 6.05402 8.45838 6.05706 8.04418C6.06009 7.62998 5.72678 7.29174 5.31258 7.2887C4.89837 7.28566 4.56013 7.61898 4.5571 8.03318C4.55406 8.44739 4.88738 8.78562 5.30158 8.78866Z" fill="#0F1A17"/>
<path d="M10.8016 8.8287C11.2158 8.83174 11.554 8.49842 11.5571 8.08422C11.5601 7.67001 11.2268 7.33178 10.8126 7.32874C10.3984 7.3257 10.0601 7.65902 10.0571 8.07322C10.0541 8.48742 10.3874 8.82566 10.8016 8.8287Z" fill="#0F1A17"/>
<path d="M2.83203 14.4023C2.75875 14.463 2.66967 14.5015 2.57524 14.5134C2.48082 14.5252 2.38497 14.5099 2.29896 14.4692C2.21295 14.4284 2.14035 14.364 2.08969 14.2834C2.03903 14.2029 2.01242 14.1095 2.01297 14.0144L2.08627 4.01463C2.08725 3.88203 2.14086 3.75524 2.23531 3.66216C2.32976 3.56909 2.45732 3.51734 2.58993 3.51831L13.5896 3.59895C13.7222 3.59992 13.849 3.65353 13.9421 3.74798C14.0352 3.84243 14.0869 3.96999 14.086 4.1026L14.0273 12.1024C14.0263 12.235 13.9727 12.3618 13.8783 12.4549C13.7838 12.5479 13.6563 12.5997 13.5237 12.5987L5.02389 12.5364L2.83203 14.4023Z" stroke="#0F1A17" stroke-width="1.5" stroke-linecap="round" stroke-linejoin="round"/>
</svg>
