<svg width="17" height="17" viewBox="0 0 17 17" fill="none" xmlns="http://www.w3.org/2000/svg">
<path d="M10.5125 14.0762L3.51272 14.0249C3.38011 14.0239 3.25333 13.9703 3.16025 13.8758C3.06717 13.7814 3.01542 13.6538 3.0164 13.5212L3.08237 4.52147C3.08334 4.38887 3.13695 4.26208 3.2314 4.169C3.32586 4.07592 3.45342 4.02418 3.58602 4.02515L8.58589 4.0618L11.0675 6.58006L11.0162 13.5799C11.0152 13.7125 10.9616 13.8393 10.8671 13.9323C10.7727 14.0254 10.6451 14.0772 10.5125 14.0762Z" stroke="#0F1A17" stroke-width="1.5" stroke-linecap="round" stroke-linejoin="round"/>
<path d="M5.087 4.03608L5.09799 2.53612C5.09897 2.40351 5.15257 2.27673 5.24703 2.18365C5.34148 2.09057 5.46904 2.03883 5.60165 2.0398L10.6015 2.07645L13.0831 4.59471L13.0318 11.5945C13.0308 11.7271 12.9772 11.8539 12.8828 11.947C12.7883 12.0401 12.6608 12.0918 12.5282 12.0908L11.0282 12.0798" stroke="#0F1A17" stroke-width="1.5" stroke-linecap="round" stroke-linejoin="round"/>
<path d="M5.54697 9.54004L8.54689 9.56203" stroke="#0F1A17" stroke-width="1.5" stroke-linecap="round" stroke-linejoin="round"/>
<path d="M5.53135 11.54L8.53127 11.562" stroke="#0F1A17" stroke-width="1.5" stroke-linecap="round" stroke-linejoin="round"/>
</svg>
