<svg width="40" height="40" viewBox="0 0 40 40" fill="none" xmlns="http://www.w3.org/2000/svg">
<path fill-rule="evenodd" clip-rule="evenodd" d="M38.0626 28.4296L37.4589 26.989L36.537 24.9452L36.4982 24.9065C33.6977 18.8029 30.7489 12.7684 27.6545 6.80835L27.5307 6.56835L26.5782 4.64772C26.1837 3.86171 25.7004 3.12356 25.1376 2.44772C24.5263 1.67735 23.7474 1.05651 22.8601 0.632406C21.9727 0.2083 21.0004 -0.00790822 20.017 0.000221031C19.0393 0.00355234 18.0742 0.220006 17.1887 0.6345C16.3033 1.04899 15.5189 1.65156 14.8901 2.40022C14.341 3.08607 13.8586 3.82274 13.4495 4.60022L12.3651 6.7221C9.26762 12.7315 6.27762 18.8108 3.51324 24.8202L3.47449 24.8977C3.23449 25.5558 2.91699 26.229 2.59137 26.9502C2.39012 27.389 2.18887 27.869 1.98762 28.3908C1.47687 29.7704 1.31206 31.2541 1.50762 32.7121C1.7232 34.1763 2.31652 35.559 3.22911 36.7241C4.1417 37.8892 5.34208 38.7965 6.71199 39.3565C7.73899 39.7882 8.84298 40.0068 9.95699 39.999C10.304 39.9929 10.6504 39.9671 10.9945 39.9215C12.4072 39.7414 13.7689 39.2779 14.9982 38.559C16.8657 37.4454 18.5419 36.0387 19.9626 34.3927C21.392 36.0298 23.0667 37.4353 24.927 38.559C26.1562 39.2781 27.518 39.7415 28.9307 39.9215C29.2745 39.9671 29.6214 39.9927 29.9682 39.999C31.0826 40.0102 32.187 39.7915 33.2132 39.3565C34.5832 38.7965 35.7835 37.8892 36.6961 36.7241C37.6087 35.559 38.202 34.1763 38.4176 32.7121C38.7127 31.2794 38.5864 29.792 38.0539 28.4296H38.0626ZM20.0164 30.5127C17.8557 27.7865 16.4539 25.2315 15.9739 23.0627C15.7776 22.2646 15.7364 21.4377 15.8501 20.6233C15.9295 20.0202 16.1501 19.4446 16.4926 18.9358C16.8934 18.3785 17.4233 17.9267 18.0371 17.6191C18.6508 17.3116 19.33 17.1576 20.0164 17.1702C21.4139 17.1165 22.7426 17.779 23.5401 18.9283C23.8839 19.4302 24.1041 20.0063 24.1826 20.6096C24.2974 21.4232 24.2554 22.2512 24.0589 23.049C23.5789 25.1708 22.1839 27.6958 20.0164 30.499V30.5127ZM35.9926 32.3877C35.6801 34.4733 34.3051 36.2415 32.3451 37.0346C31.3878 37.4395 30.3425 37.5914 29.3095 37.4758C28.2343 37.343 27.1982 36.9898 26.2657 36.4383C24.5473 35.401 23.0072 34.0936 21.7045 32.5665C24.3451 29.3215 25.9545 26.3708 26.5526 23.7146C26.8131 22.5985 26.8812 21.4461 26.7539 20.3071C26.6051 19.3277 26.2339 18.3946 25.6695 17.5808C24.3807 15.7421 22.2614 14.6646 20.0164 14.7077C17.7839 14.679 15.6776 15.739 14.3707 17.5496C13.8064 18.364 13.4351 19.2958 13.2864 20.2758C13.1172 21.4134 13.1857 22.5736 13.4876 23.6833C14.0914 26.324 15.7332 29.329 18.3357 32.574C17.0421 34.1101 15.5003 35.4188 13.7745 36.4458C12.8423 37.0093 11.8033 37.3732 10.7232 37.5146C9.69104 37.6289 8.64651 37.4908 7.67949 37.1121C5.72512 36.3252 4.33762 34.5577 4.03137 32.4715C3.90464 31.4247 4.02934 30.3629 4.39512 29.374C4.51887 28.9715 4.71262 28.599 4.91387 28.0965C5.19262 27.454 5.51762 26.7715 5.83574 26.0965L5.87449 26.019C8.63949 20.0565 11.5976 13.969 14.687 8.03647L14.8032 7.75022L15.7632 5.90647C16.0749 5.27088 16.4623 4.6753 16.917 4.13272C17.3119 3.6691 17.8027 3.29675 18.3556 3.04142C18.9085 2.78608 19.5102 2.65384 20.1192 2.65384C20.7282 2.65384 21.3299 2.78608 21.8828 3.04142C22.4357 3.29675 22.9265 3.6691 23.3214 4.13272C23.7542 4.67306 24.1208 5.26331 24.4132 5.89085L25.3732 7.7346L25.4895 7.9746C28.5332 13.9452 31.507 20.0246 34.2645 25.9958V26.0346C34.582 26.6771 34.8682 27.3971 35.1864 28.0346C35.3876 28.5146 35.5889 28.9177 35.7051 29.3121C36.0376 30.3089 36.1331 31.3695 35.9839 32.4096L35.9926 32.3877Z" fill="#FF5A5F"/>
</svg>
