<svg width="40" height="40" viewBox="0 0 40 40" fill="none" xmlns="http://www.w3.org/2000/svg">
<path d="M17.8528 3.62125L2.94686 9.78916C2.11793 10.1322 2.12652 11.3096 2.96064 11.6402L17.929 17.5761C19.2443 18.0976 20.7089 18.0976 22.0239 17.5761L36.9925 11.6402C37.8264 11.3096 37.8352 10.1322 37.0061 9.78916L22.1003 3.62125C20.7403 3.05854 19.2126 3.05854 17.8528 3.62125Z" fill="#FFBF00"/>
<path d="M21.3047 20.8175V35.646C21.3047 36.3513 22.0159 36.8342 22.6715 36.5743L39.3508 30.1002C39.7316 29.9493 39.9813 29.5814 39.9813 29.1719V14.3434C39.9813 13.6381 39.2701 13.1551 38.6145 13.415L21.9352 19.8891C21.5546 20.0401 21.3047 20.408 21.3047 20.8175Z" fill="#26B5F8"/>
<path d="M17.4097 21.5822L12.4597 23.9723L11.9571 24.2152L1.5078 29.222C0.845424 29.5416 0 29.0589 0 28.323V14.4053C0 14.1391 0.136497 13.9093 0.319548 13.7361C0.395932 13.6595 0.482486 13.5965 0.572429 13.5465C0.822147 13.3967 1.1783 13.3567 1.48113 13.4765L17.3266 19.7547C18.132 20.0742 18.1953 21.2028 17.4097 21.5822Z" fill="#ED3049"/>
<path d="M17.4105 21.5822L12.4604 23.9723L0.320312 13.7361C0.396697 13.6595 0.48325 13.5965 0.573194 13.5465C0.822911 13.3967 1.17907 13.3567 1.48189 13.4765L17.3273 19.7547C18.1327 20.0742 18.196 21.2028 17.4105 21.5822Z" fill="black" fill-opacity="0.25"/>
</svg>
