<svg width="40" height="40" viewBox="0 0 40 40" fill="none" xmlns="http://www.w3.org/2000/svg">
<g clip-path="url(#clip0_643_928)">
<path fill-rule="evenodd" clip-rule="evenodd" d="M40 7.67981C40 3.4412 36.633 0 32.4876 0H7.51233C3.36702 0 0 3.4412 0 7.67981V32.3198C0 36.5573 3.36702 39.9997 7.51236 39.9997H32.4876C36.633 39.9997 40 36.5573 40 32.3198L40 7.67981Z" fill="#0C3B7C"/>
<path fill-rule="evenodd" clip-rule="evenodd" d="M0.00195312 24.8496H19.9795V39.9995H0.00196777L0.00195312 24.8496Z" fill="#0C3B7C"/>
<path d="M18.1805 26.4768L14.9588 26.4735V22.5346C14.9588 21.693 15.2781 21.255 15.9825 21.1549H18.1806C19.7481 21.1549 20.7621 22.1655 20.7621 23.8011C20.7621 25.481 19.7738 26.4752 18.1805 26.4768ZM14.9588 15.8527V14.8159C14.9588 13.9087 15.3343 13.4772 16.1574 13.4215H17.8067C19.2202 13.4215 20.0674 14.286 20.0674 15.7346C20.0674 16.8371 19.4866 18.1249 17.8581 18.1249H14.9588V15.8527ZM22.2943 19.7835L21.7119 19.4488L22.2206 19.0042C22.8126 18.4841 23.8041 17.3145 23.8041 15.2966C23.8041 12.2058 21.46 10.2126 17.8324 10.2126H13.6929V10.2109H13.2212C12.1463 10.252 11.2847 11.1461 11.2734 12.2518V29.7891H17.9142C21.9462 29.7891 24.5486 27.5448 24.5486 24.0685C24.5486 22.1967 23.7079 20.5972 22.2943 19.7835Z" fill="white"/>
<path d="M26.2773 27.3669C26.2773 26.0272 27.3341 24.9434 28.6361 24.9434C29.9413 24.9434 31.003 26.0272 31.003 27.3669C31.003 28.7049 29.9413 29.7905 28.636 29.7905C27.3341 29.7905 26.2773 28.7049 26.2773 27.3669Z" fill="#00BAFC"/>
</g>
<defs>
<clipPath id="clip0_643_928">
<rect width="40" height="40" fill="white"/>
</clipPath>
</defs>
</svg>
