<svg width="40" height="40" viewBox="0 0 40 40" fill="none" xmlns="http://www.w3.org/2000/svg">
<path d="M13.4674 39.9993C17.1474 39.9993 20.1341 37.0127 20.1341 33.3327V26.666H13.4674C9.78745 26.666 6.80078 29.6527 6.80078 33.3327C6.80078 37.0127 9.78745 39.9993 13.4674 39.9993Z" fill="#0ACF83"/>
<path d="M6.80078 20.0007C6.80078 16.3207 9.78745 13.334 13.4674 13.334H20.1341V26.6673H13.4674C9.78745 26.6673 6.80078 23.6807 6.80078 20.0007Z" fill="#A259FF"/>
<path d="M6.80078 6.66667C6.80078 2.98667 9.78745 0 13.4674 0H20.1341V13.3333H13.4674C9.78745 13.3333 6.80078 10.3467 6.80078 6.66667Z" fill="#F24E1E"/>
<path d="M20.1348 0H26.8014C30.4814 0 33.4681 2.98667 33.4681 6.66667C33.4681 10.3467 30.4814 13.3333 26.8014 13.3333H20.1348V0Z" fill="#FF7262"/>
<path d="M33.4681 20.0007C33.4681 23.6807 30.4814 26.6673 26.8014 26.6673C23.1214 26.6673 20.1348 23.6807 20.1348 20.0007C20.1348 16.3207 23.1214 13.334 26.8014 13.334C30.4814 13.334 33.4681 16.3207 33.4681 20.0007Z" fill="#1ABCFE"/>
</svg>
