<svg width="40" height="40" viewBox="0 0 40 40" fill="none" xmlns="http://www.w3.org/2000/svg">
<path opacity="0.2" d="M5.26367 3.125C3.73703 3.125 2.5 4.36203 2.5 5.88867V30.625V35.3613C2.5 36.888 3.73703 38.125 5.26367 38.125H10H30L37.5 30.625V10.625V5.88867C37.5 4.36203 36.263 3.125 34.7363 3.125H30H5.26367Z" fill="black"/>
<path d="M30 10H10V30H30V10Z" fill="white"/>
<path d="M30 37.5L37.5 30H30V37.5Z" fill="#EA4335"/>
<path d="M37.5 10H30V30H37.5V10Z" fill="#FBBC04"/>
<path d="M30 30H10V37.5H30V30Z" fill="#34A853"/>
<path d="M2.5 30V34.7368C2.5 36.2635 3.73652 37.5 5.26315 37.5H10V30H2.5Z" fill="#188038"/>
<path d="M37.5 10V5.26316C37.5 3.73651 36.2635 2.5 34.7368 2.5H30V10H37.5Z" fill="#1967D2"/>
<path d="M30 2.5H5.26315C3.73652 2.5 2.5 3.73651 2.5 5.26316V30H10V10H30V2.5Z" fill="#4285F4"/>
<path opacity="0.1" d="M17.1785 15.625C16.3843 15.625 15.73 15.8282 15.218 16.2329C14.706 16.6376 14.3572 17.1055 14.167 17.6355L15.6025 18.2239C15.711 17.9081 15.9 17.6244 16.1506 17.3999C16.4014 17.176 16.7399 17.0654 17.1663 17.0654C17.603 17.0654 17.9624 17.1804 18.2466 17.4084C18.5308 17.6365 18.6726 17.9407 18.6726 18.3228C18.6726 18.7521 18.5142 19.0882 18.1965 19.3347C17.8789 19.5812 17.4874 20 17.0234 20H16.2495V21.2415H17.1089C17.6458 21.2914 18.0995 21.2583 18.459 21.5417C18.8185 21.8252 18.9985 22.1901 18.9985 22.6379C18.9985 23.0755 18.8277 23.4372 18.4871 23.7207C18.1464 24.0042 17.7383 24.1455 17.2639 24.1455C16.8 24.1455 16.4034 24.0126 16.0774 23.7415C15.7493 23.4703 15.5194 23.0882 15.3877 22.5952L13.9375 23.1824C14.1737 23.9835 14.6053 24.5899 15.2302 25.0049C15.8551 25.4198 16.5328 25.627 17.2664 25.625C17.8996 25.625 18.4699 25.4972 18.9778 25.2466C19.4835 24.996 19.8832 24.6514 20.1716 24.2139C20.46 23.7763 20.6038 23.2773 20.6038 22.7185C20.6038 22.1598 20.4515 21.6811 20.1484 21.2805C19.8496 20.884 19.4456 20.5751 18.9814 20.387V20.3027C19.3409 20.1158 19.6443 19.8487 19.8909 19.4995C20.1375 19.1503 20.2607 18.7247 20.2607 18.2214C20.2607 17.7284 20.1294 17.2849 19.864 16.8884C19.5986 16.494 19.2311 16.1834 18.7629 15.9595C18.2948 15.7356 17.7657 15.625 17.1785 15.625ZM24.4612 15.625L21.4497 17.7454L22.2896 18.988L23.7495 17.8027V25.625H25.616V15.625H24.4612Z" fill="black"/>
<path d="M23.7492 17.178L22.2887 18.3627L21.4492 17.12L24.4613 15H25.6159V25H23.7492V17.178Z" fill="#4285F4"/>
<path d="M15.2311 24.3796C14.6063 23.9647 14.1736 23.3587 13.9375 22.5575L15.3879 21.97C15.5195 22.463 15.7494 22.8451 16.0775 23.1163C16.4035 23.3874 16.8006 23.5209 17.2646 23.5209C17.739 23.5209 18.1465 23.3792 18.4871 23.0957C18.8278 22.8122 18.9992 22.4507 18.9992 22.0131C18.9992 21.5653 18.8194 21.1997 18.46 20.9162C18.1005 20.6327 17.6468 20.6658 17.1099 20.6159H16.25V19.375H17.0242C17.4882 19.375 17.879 18.9564 18.1966 18.7099C18.5143 18.4634 18.6731 18.1265 18.6731 17.6972C18.6731 17.3151 18.531 17.0111 18.2468 16.7831C17.9626 16.5551 17.6031 16.44 17.1663 16.44C16.74 16.44 16.4015 16.5509 16.1507 16.7749C15.9001 16.9994 15.7116 17.2828 15.6031 17.5986L14.1674 17.0111C14.3576 16.4811 14.7066 16.0127 15.2186 15.6081C15.7306 15.2034 16.3847 15 17.1789 15C17.7661 15 18.2949 15.1109 18.763 15.3348C19.2311 15.5587 19.5989 15.8689 19.8644 16.2634C20.1298 16.6598 20.2614 17.1035 20.2614 17.5965C20.2614 18.0998 20.1381 18.5251 19.8915 18.8743C19.6449 19.2235 19.3419 19.4905 18.9824 19.6775V19.7617C19.4466 19.9498 19.8498 20.2587 20.1486 20.6553C20.4516 21.0559 20.6042 21.5345 20.6042 22.0933C20.6042 22.652 20.46 23.1512 20.1716 23.5887C19.8832 24.0263 19.484 24.3714 18.9783 24.622C18.4704 24.8726 17.8999 25 17.2667 25C16.5331 25.002 15.856 24.7946 15.2311 24.3796Z" fill="#4285F4"/>
<path opacity="0.2" d="M5.26367 2.5C3.73703 2.5 2.5 3.73703 2.5 5.26367V5.88867C2.5 4.36203 3.73703 3.125 5.26367 3.125H30H34.7363C36.263 3.125 37.5 4.36203 37.5 5.88867V5.26367C37.5 3.73703 36.263 2.5 34.7363 2.5H30H5.26367Z" fill="white"/>
</svg>
