<svg width="40" height="40" viewBox="0 0 40 40" fill="none" xmlns="http://www.w3.org/2000/svg">
<g clip-path="url(#clip0_643_907)">
<path d="M3.02344 32.7578L4.78906 35.8047C5.15625 36.4453 5.67969 36.9531 6.30469 37.3203L12.6016 26.4141H0C0 27.125 0.179688 27.8359 0.546875 28.4766L3.02344 32.7578Z" fill="#0066DA"/>
<path d="M20 13.5859L13.7031 2.67969C13.0859 3.04688 12.5547 3.54688 12.1875 4.19531L0.546875 24.3516C0.1875 24.9766 0 25.6875 0 26.4141H12.6016L20 13.5859Z" fill="#00AC47"/>
<path d="M33.7031 37.3203C34.3203 36.9531 34.8516 36.4531 35.2187 35.8047L35.9531 34.5469L39.4609 28.4766C39.8281 27.8359 40.0078 27.125 40.0078 26.4141H27.3984L30.0781 31.6797L33.7031 37.3203Z" fill="#EA4335"/>
<path d="M20 13.5859L26.2969 2.67969C25.6797 2.3125 24.9688 2.13281 24.2344 2.13281H15.7656C15.0313 2.13281 14.3203 2.33594 13.7031 2.67969L20 13.5859Z" fill="#00832D"/>
<path d="M27.3984 26.4141H12.6016L6.29688 37.3203C6.91406 37.6875 7.625 37.8672 8.35938 37.8672H31.6406C32.375 37.8672 33.0859 37.6641 33.7031 37.3203L27.3984 26.4141Z" fill="#2684FC"/>
<path d="M33.6328 14.2734L27.8125 4.19531C27.4453 3.55469 26.9219 3.04688 26.2969 2.67969L20 13.5859L27.3984 26.4141H39.9766C39.9766 25.7031 39.7969 24.9922 39.4297 24.3516L33.6328 14.2734Z" fill="#FFBA00"/>
</g>
<defs>
<clipPath id="clip0_643_907">
<rect width="40" height="40" fill="white"/>
</clipPath>
</defs>
</svg>
