<svg width="40" height="40" viewBox="0 0 40 40" fill="none" xmlns="http://www.w3.org/2000/svg">
<path d="M2.72656 35H9.09375V19.5469L0 12.7344V32.2812C0 33.7891 1.22656 35 2.72656 35Z" fill="#4285F4"/>
<path d="M30.9062 35H37.2734C38.7812 35 40 33.7734 40 32.2734V12.7344L30.9062 19.5547" fill="#34A853"/>
<path d="M30.9062 7.73468V19.555L40 12.7347V9.10187C40 5.72687 36.1484 3.80499 33.4531 5.82843" fill="#FBBC04"/>
<path d="M9.09375 19.5469V7.73438L20 15.9141L30.9062 7.73438V19.5547L20 27.7344" fill="#EA4335"/>
<path d="M0 9.09406V12.7347L9.09375 19.555V7.73468L6.54688 5.82062C3.84375 3.79718 0 5.71906 0 9.09406Z" fill="#C5221F"/>
</svg>
