<svg width="40" height="40" viewBox="0 0 40 40" fill="none" xmlns="http://www.w3.org/2000/svg">
<path d="M24.4492 10.1597H34.607L24.4492 0.00195312V10.1597Z" fill="#188038"/>
<path d="M24.4495 10.1597V0.00195312H7.44196C6.19911 0.00195312 5.19922 1.00184 5.19922 2.2447V37.7548C5.19922 38.9977 6.19911 39.9976 7.44196 39.9976H32.3645C33.6073 39.9976 34.6072 38.9977 34.6072 37.7548V10.1597H24.4495Z" fill="#34A853"/>
<path d="M10.8066 15.6914V29.4376H29.0009V15.6914H10.8066ZM18.7777 27.1948H13.0494V23.6812H18.7777V27.1948ZM18.7777 21.4478H13.0494V17.9342H18.7777V21.4478ZM26.7582 27.1948H21.0298V23.6812H26.7582V27.1948ZM26.7582 21.4478H21.0298V17.9342H26.7582V21.4478Z" fill="white"/>
</svg>
