<svg width="40" height="40" viewBox="0 0 40 40" fill="none" xmlns="http://www.w3.org/2000/svg">
<g clip-path="url(#clip0_643_917)">
<path d="M20 0.494141C8.95 0.494141 0 9.44914 0 20.4941C0 29.3325 5.73 36.8275 13.675 39.4691C14.675 39.6575 15.0417 39.0391 15.0417 38.5075C15.0417 38.0325 15.025 36.7741 15.0167 35.1075C9.45333 36.3141 8.28 32.4241 8.28 32.4241C7.37 30.1158 6.055 29.4991 6.055 29.4991C4.24333 28.2591 6.195 28.2841 6.195 28.2841C8.20333 28.4241 9.25833 30.3441 9.25833 30.3441C11.0417 33.4025 13.94 32.5191 15.0833 32.0075C15.2633 30.7141 15.7783 29.8325 16.35 29.3325C11.9083 28.8325 7.24 27.1125 7.24 19.4491C7.24 17.2658 8.015 15.4825 9.29833 14.0825C9.07333 13.5775 8.39833 11.5441 9.47333 8.78914C9.47333 8.78914 11.1483 8.25247 14.9733 10.8391C16.5733 10.3941 18.2733 10.1741 19.9733 10.1641C21.6733 10.1741 23.3733 10.3941 24.9733 10.8391C28.7733 8.25247 30.4483 8.78914 30.4483 8.78914C31.5233 11.5441 30.8483 13.5775 30.6483 14.0825C31.9233 15.4825 32.6983 17.2658 32.6983 19.4491C32.6983 27.1325 28.0233 28.8241 23.5733 29.3158C24.2733 29.9158 24.9233 31.1425 24.9233 33.0158C24.9233 35.6925 24.8983 37.8425 24.8983 38.4925C24.8983 39.0175 25.2483 39.6425 26.2733 39.4425C34.275 36.8191 40 29.3191 40 20.4941C40 9.44914 31.045 0.494141 20 0.494141Z" fill="black"/>
</g>
<defs>
<clipPath id="clip0_643_917">
<rect width="40" height="40" fill="white"/>
</clipPath>
</defs>
</svg>
