<svg width="40" height="40" viewBox="0 0 40 40" fill="none" xmlns="http://www.w3.org/2000/svg">
<g clip-path="url(#clip0_643_920)">
<path d="M36.7035 19.0005C35.8124 17.4795 34.5409 16.2164 33.0139 15.3353C31.8481 14.6578 30.6427 14.2275 29.2815 14.0414V9.16762C29.9416 8.8941 30.5045 8.42884 30.8973 7.83201C31.2901 7.23518 31.4948 6.53422 31.4849 5.81979C31.4874 5.33733 31.3944 4.85915 31.2115 4.41272C31.0285 3.96629 30.7591 3.56041 30.4188 3.2184C30.0785 2.8764 29.674 2.60501 29.2285 2.41982C28.783 2.23464 28.3053 2.13931 27.8228 2.13931C26.8455 2.13931 25.9081 2.52668 25.216 3.21656C24.5238 3.90643 24.1333 4.84255 24.1301 5.81979C24.1301 7.31517 24.9236 8.59083 26.2877 9.16762V14.0139C25.1577 14.1774 24.0613 14.5216 23.0406 15.0332L9.99414 5.1545C10.0857 4.80964 10.165 4.45258 10.165 4.07721C10.165 1.82498 8.34006 0 6.08783 0C3.8356 0 2.01367 1.82498 2.01367 4.07721C2.01367 6.32944 3.83865 8.15442 6.09088 8.15442C6.85994 8.15442 7.57101 7.92859 8.18442 7.55932L9.03893 8.2063L20.7426 16.6445C20.1231 17.2122 19.5463 17.8592 19.0855 18.5855C18.1516 20.0656 17.5809 21.6922 17.5809 23.4684V23.8346C17.5851 25.0391 17.802 26.2335 18.2218 27.3625C18.5758 28.3268 19.0946 29.2058 19.7386 29.9992L15.8506 33.8964C14.7 33.4691 13.4091 33.753 12.5393 34.6227C11.9473 35.2117 11.6146 36.0143 11.6177 36.8505C11.6208 37.6867 11.9473 38.4832 12.5424 39.0784C13.1375 39.6735 13.934 40.0031 14.7702 40.0031C15.6064 40.0031 16.409 39.6735 16.998 39.0784C17.587 38.4832 17.9227 37.6867 17.9197 36.8505C17.9194 36.5296 17.87 36.2105 17.7732 35.9045L21.7894 31.8883C22.3387 32.2698 22.9338 32.5902 23.5747 32.8649C24.8919 33.4426 26.3143 33.7418 27.7526 33.7438H28.0273C29.7119 33.7438 31.3018 33.3471 32.7942 32.5383C34.3281 31.7158 35.6169 30.5017 36.5296 29.0196C37.4665 27.5242 37.9792 25.8671 37.9792 24.0452V23.9536C37.9792 22.1622 37.5641 20.5112 36.6974 18.9975L36.7035 19.0005ZM31.7993 27.4296C30.7098 28.6412 29.4555 29.3889 28.0395 29.3889H27.7709C26.9622 29.3889 26.1687 29.1661 25.3966 28.7572C24.55 28.3169 23.8327 27.6638 23.3153 26.862C22.7537 26.0685 22.4486 25.2018 22.4486 24.2832V24.0085C22.4486 23.1052 22.6225 22.2477 23.0589 21.4389C23.5258 20.5234 24.1576 19.8672 24.9968 19.321C25.8361 18.7747 26.6997 18.5122 27.6824 18.5122H27.774C28.659 18.5122 29.5043 18.6862 30.2978 19.0921C31.1016 19.5148 31.7844 20.1356 32.2815 20.8957C32.7736 21.6579 33.078 22.526 33.1695 23.4287L33.1909 23.9994C33.1909 25.2415 32.7148 26.392 31.7657 27.4357L31.7993 27.4296Z" fill="#F8761F"/>
</g>
<defs>
<clipPath id="clip0_643_920">
<rect width="40" height="40" fill="white"/>
</clipPath>
</defs>
</svg>
