<svg width="40" height="40" viewBox="0 0 40 40" fill="none" xmlns="http://www.w3.org/2000/svg">
<g clip-path="url(#clip0_643_924)">
<path d="M0.489885 24.6092C0.401085 24.2296 0.853085 23.9908 1.12869 24.2664L15.7335 38.8712C16.0095 39.1472 15.7703 39.5992 15.3907 39.51C8.02069 37.7808 2.21869 31.9792 0.489885 24.6092ZM0.000685377 18.7556C-0.00261339 18.8116 0.00602214 18.8677 0.0260201 18.9201C0.046018 18.9725 0.076922 19.02 0.116685 19.0596L20.9399 39.884C21.0203 39.964 21.1311 40.0068 21.2439 40C22.1919 39.9404 23.1219 39.816 24.0291 39.6292C24.3351 39.5664 24.4411 39.1908 24.2203 38.97L1.03029 15.7792C0.809485 15.5588 0.433885 15.6648 0.371085 15.9708C0.182583 16.8893 0.0588117 17.8198 0.000685377 18.7556ZM1.68389 11.882C1.65162 11.9551 1.6423 12.0364 1.65715 12.1149C1.67201 12.1935 1.71034 12.2657 1.76709 12.322L27.6775 38.2324C27.7931 38.3484 27.9679 38.3824 28.1175 38.3156C28.8292 37.9985 29.5217 37.64 30.1915 37.242C30.2428 37.2112 30.2864 37.169 30.3189 37.1187C30.3514 37.0684 30.372 37.0114 30.3791 36.9519C30.3861 36.8925 30.3795 36.8322 30.3597 36.7757C30.3398 36.7192 30.3074 36.668 30.2647 36.626L3.37429 9.7344C3.33228 9.69166 3.28105 9.6591 3.22451 9.63923C3.16797 9.61936 3.10764 9.6127 3.04813 9.61977C2.98862 9.62684 2.93152 9.64744 2.88121 9.68C2.83089 9.71256 2.78871 9.75621 2.75789 9.8076C2.35984 10.4774 2.00136 11.1699 1.68429 11.8816L1.68389 11.882ZM5.06309 7.2296C4.99146 7.15871 4.94969 7.0631 4.94634 6.96238C4.94299 6.86166 4.97833 6.76349 5.04509 6.688C8.71189 2.584 14.0443 0 19.9807 0C31.0367 0 39.9999 8.9628 39.9999 20.0192C39.9999 25.9552 37.4159 31.288 33.3119 34.9544C33.2364 35.0212 33.1382 35.0565 33.0375 35.0531C32.9368 35.0498 32.8412 35.008 32.7703 34.9364L5.06349 7.2296H5.06309Z" fill="#5E6AD2"/>
</g>
<defs>
<clipPath id="clip0_643_924">
<rect width="40" height="40" fill="white"/>
</clipPath>
</defs>
</svg>
