<svg width="40" height="40" viewBox="0 0 40 40" fill="none" xmlns="http://www.w3.org/2000/svg">
<path d="M27.9003 15.1523H38.2324C39.2085 15.1523 39.9998 15.9436 39.9998 16.9198V26.3309C39.9998 29.9185 37.0916 32.8268 33.504 32.8268H33.4733C29.8858 32.8273 26.9771 29.9194 26.9766 26.3319C26.9766 26.3319 26.9766 26.3313 26.9766 26.3309V16.0761C26.9766 15.5659 27.3901 15.1523 27.9003 15.1523Z" fill="#5059C9"/>
<path d="M34.8833 13.292C37.1952 13.292 39.0694 11.4179 39.0694 9.10597C39.0694 6.79408 37.1952 4.91992 34.8833 4.91992C32.5714 4.91992 30.6973 6.79408 30.6973 9.10597C30.6973 11.4179 32.5714 13.292 34.8833 13.292Z" fill="#5059C9"/>
<path d="M21.861 13.2923C25.2004 13.2923 27.9075 10.5851 27.9075 7.24574C27.9075 3.90634 25.2004 1.19922 21.861 1.19922C18.5216 1.19922 15.8145 3.90634 15.8145 7.24574C15.8145 10.5851 18.5216 13.2923 21.861 13.2923Z" fill="#7B83EB"/>
<path d="M29.9231 15.1523H12.8682C11.9037 15.1762 11.1407 15.9766 11.1631 16.9412V27.6751C11.0284 33.4633 15.6077 38.2665 21.3956 38.4082C27.1836 38.2665 31.7629 33.4633 31.6282 27.6751V16.9412C31.6505 15.9766 30.8876 15.1762 29.9231 15.1523Z" fill="#7B83EB"/>
<path opacity="0.1" d="M22.3254 15.1523V30.1942C22.3208 30.884 21.9028 31.5037 21.2649 31.7663C21.0619 31.8522 20.8436 31.8965 20.6231 31.8965H11.9812C11.8603 31.5896 11.7487 31.2826 11.6556 30.9663C11.33 29.8989 11.1638 28.7893 11.1626 27.6733V16.9384C11.1402 15.9754 11.902 15.1762 12.8649 15.1523H22.3254Z" fill="black"/>
<path opacity="0.2" d="M21.3952 15.1523V31.1244C21.3952 31.3449 21.3508 31.5632 21.2649 31.7663C21.0023 32.4041 20.3826 32.8221 19.6928 32.8268H12.4184C12.2603 32.5198 12.1114 32.2128 11.9812 31.8965C11.851 31.5803 11.7487 31.2826 11.6556 30.9663C11.33 29.8989 11.1638 28.7893 11.1626 27.6733V16.9384C11.1402 15.9754 11.902 15.1762 12.8649 15.1523H21.3952Z" fill="black"/>
<path opacity="0.2" d="M21.3952 15.1523V29.264C21.3881 30.2012 20.6301 30.9592 19.6928 30.9663H11.6556C11.33 29.8989 11.1638 28.7893 11.1626 27.6733V16.9384C11.1402 15.9754 11.902 15.1762 12.8649 15.1523H21.3952Z" fill="black"/>
<path opacity="0.2" d="M20.4649 15.1523V29.264C20.4578 30.2012 19.6998 30.9592 18.7626 30.9663H11.6556C11.33 29.8989 11.1638 28.7893 11.1626 27.6733V16.9384C11.1402 15.9754 11.902 15.1762 12.8649 15.1523H20.4649Z" fill="black"/>
<path opacity="0.1" d="M22.3247 10.3429V13.2732C22.1665 13.2825 22.0177 13.2918 21.8595 13.2918C21.7014 13.2918 21.5526 13.2825 21.3944 13.2732C21.0804 13.2523 20.769 13.2025 20.4642 13.1243C18.5805 12.6782 17.0242 11.3572 16.2781 9.57085C16.1498 9.27087 16.0501 8.95939 15.9805 8.64062H20.6223C21.561 8.64418 22.3211 9.40424 22.3247 10.3429Z" fill="black"/>
<path opacity="0.2" d="M21.3956 11.2726V13.2726C21.0816 13.2518 20.7702 13.202 20.4653 13.1238C18.5816 12.6777 17.0254 11.3566 16.2793 9.57031H19.6932C20.6319 9.57387 21.392 10.3339 21.3956 11.2726Z" fill="black"/>
<path opacity="0.2" d="M21.3956 11.2726V13.2726C21.0816 13.2518 20.7702 13.202 20.4653 13.1238C18.5816 12.6777 17.0254 11.3566 16.2793 9.57031H19.6932C20.6319 9.57387 21.392 10.3339 21.3956 11.2726Z" fill="black"/>
<path opacity="0.2" d="M20.4653 11.2726V13.1238C18.5816 12.6777 17.0254 11.3566 16.2793 9.57031H18.763C19.7017 9.57388 20.4618 10.334 20.4653 11.2726Z" fill="black"/>
<path d="M1.70511 9.57031H18.76C19.7017 9.57031 20.4651 10.3337 20.4651 11.2754V28.3303C20.4651 29.272 19.7017 30.0354 18.76 30.0354H1.70511C0.763395 30.0354 0 29.272 0 28.3303V11.2754C0 10.3337 0.763413 9.57031 1.70511 9.57031Z" fill="url(#paint0_linear_643_918)"/>
<path d="M14.721 16.0626H11.3117V25.3464H9.13958V16.0626H5.74609V14.2617H14.721V16.0626Z" fill="white"/>
<defs>
<linearGradient id="paint0_linear_643_918" x1="355.521" y1="-123.664" x2="1690.99" y2="2189.32" gradientUnits="userSpaceOnUse">
<stop stop-color="#5A62C3"/>
<stop offset="0.5" stop-color="#4D55BD"/>
<stop offset="1" stop-color="#3940AB"/>
</linearGradient>
</defs>
</svg>
