<svg width="40" height="40" viewBox="0 0 40 40" fill="none" xmlns="http://www.w3.org/2000/svg">
<g clip-path="url(#clip0_643_927)">
<path d="M7.43112 7.01292C8.67445 8.02292 9.14112 7.94625 11.4778 7.78959L33.5028 6.46792C33.9695 6.46792 33.5811 6.00125 33.4261 5.92459L29.7661 3.27959C29.0661 2.73625 28.1311 2.11292 26.3411 2.26792L5.01612 3.82459C4.23945 3.90125 4.08279 4.29125 4.39279 4.60125L7.43112 7.01292ZM8.75279 12.1463V35.3196C8.75279 36.5646 9.37445 37.0313 10.7761 36.9529L34.9811 35.5529C36.3828 35.4763 36.5395 34.6196 36.5395 33.6079V10.5896C36.5395 9.57959 36.1511 9.03459 35.2928 9.11125L9.99779 10.5896C9.06445 10.6679 8.75279 11.1363 8.75279 12.1463ZM32.6478 13.3879C32.8028 14.0879 32.6478 14.7879 31.9478 14.8679L30.7811 15.1013V32.2079C29.7678 32.7529 28.8345 33.0646 28.0561 33.0646C26.8095 33.0646 26.4978 32.6746 25.5645 31.5096L17.9361 19.5329V31.1196L20.3495 31.6663C20.3495 31.6663 20.3495 33.0663 18.4028 33.0663L13.0328 33.3763C12.8778 33.0662 13.0328 32.2879 13.5778 32.1329L14.9778 31.7446V16.4229L13.0361 16.2663C12.8795 15.5663 13.2695 14.5563 14.3578 14.4779L20.1178 14.0896L28.0578 26.2213V15.4879L26.0328 15.2563C25.8778 14.3996 26.4995 13.7779 27.2778 13.7013L32.6478 13.3879ZM3.22612 1.72459L25.4095 0.0912532C28.1328 -0.14208 28.8344 0.0129199 30.5461 1.25792L37.6278 6.23459C38.7945 7.08959 39.1845 7.32292 39.1845 8.25625V35.5529C39.1845 37.2629 38.5628 38.2763 36.3844 38.4296L10.6211 39.9863C8.98779 40.0646 8.20779 39.8313 7.35112 38.7413L2.13612 31.9746C1.20279 30.7296 0.814453 29.7979 0.814453 28.7079V4.44459C0.814453 3.04625 1.43779 1.87792 3.22612 1.72459Z" fill="black"/>
</g>
<defs>
<clipPath id="clip0_643_927">
<rect width="40" height="40" fill="white"/>
</clipPath>
</defs>
</svg>
