<svg width="40" height="40" viewBox="0 0 40 40" fill="none" xmlns="http://www.w3.org/2000/svg">
<path d="M34.5021 3.19727H13.8975C13.4513 3.19727 13.0233 3.37455 12.7077 3.69012C12.3921 4.00568 12.2148 4.43368 12.2148 4.87996V6.79277L23.8283 10.3883L36.1848 6.79277V4.87996C36.1848 4.43368 36.0076 4.00568 35.692 3.69012C35.3764 3.37455 34.9484 3.19727 34.5021 3.19727Z" fill="#0364B8"/>
<path d="M38.1629 21.6606C38.3384 21.1088 38.4785 20.5464 38.5824 19.9767C38.5822 19.8368 38.5452 19.6993 38.4752 19.5782C38.4051 19.457 38.3045 19.3564 38.1833 19.2864L38.1677 19.2768L38.1629 19.2744L25.1735 11.8749C25.1175 11.8385 25.0595 11.8053 24.9998 11.7754C24.7513 11.6521 24.4777 11.5879 24.2004 11.5879C23.923 11.5879 23.6494 11.6521 23.401 11.7754C23.3412 11.8049 23.2832 11.8377 23.2272 11.8737L10.2378 19.2756L10.233 19.278L10.2187 19.2864C10.0972 19.3562 9.99631 19.4568 9.92605 19.578C9.85578 19.6991 9.81864 19.8367 9.81836 19.9767C9.92218 20.5464 10.0623 21.1088 10.2378 21.6606L24.011 31.734L38.1629 21.6606Z" fill="#0A2767"/>
<path d="M28.9933 6.79297H20.6038L18.1816 10.3885L20.6038 13.984L28.9933 21.175H36.1843V13.984L28.9933 6.79297Z" fill="#28A8EA"/>
<path d="M12.2148 6.79297H20.6043V13.984H12.2148V6.79297Z" fill="#0078D4"/>
<path d="M28.9941 6.79297H36.1851V13.984H28.9941V6.79297Z" fill="#50D9FF"/>
<path d="M28.9938 21.1754L20.6043 13.9844H12.2148V21.1754L20.6043 28.3664L33.5865 30.4853L28.9938 21.1754Z" fill="#0364B8"/>
<path d="M20.6055 13.9844H28.995V21.1754H20.6055V13.9844Z" fill="#0078D4"/>
<path d="M12.2148 21.1758H20.6043V28.3668H12.2148V21.1758Z" fill="#064A8C"/>
<path d="M28.9941 21.1758H36.1851V28.3668H28.9941V21.1758Z" fill="#0078D4"/>
<path opacity="0.5" d="M24.4269 31.0244L10.293 20.7173L10.8862 19.6746C10.8862 19.6746 23.7641 27.0094 23.9607 27.1197C24.0411 27.1519 24.1273 27.1672 24.2138 27.1647C24.3004 27.1623 24.3856 27.142 24.464 27.1053L37.5672 19.6387L38.1617 20.6802L24.4269 31.0244Z" fill="#0A2767"/>
<path d="M38.1834 20.6681L38.1666 20.6777L38.163 20.6801L25.1736 28.0796C24.9157 28.246 24.6193 28.3433 24.313 28.3624C24.0066 28.3815 23.7005 28.3217 23.4238 28.1887L27.947 34.2543L37.8394 36.408V36.4128C38.0695 36.2463 38.2568 36.0277 38.386 35.7747C38.5152 35.5218 38.5825 35.2418 38.5825 34.9578V19.9766C38.5825 20.1167 38.5456 20.2544 38.4756 20.3758C38.4055 20.4972 38.3047 20.598 38.1834 20.6681Z" fill="#1490DF"/>
<path opacity="0.05" d="M38.5825 34.9594V34.0749L26.6178 27.2578L25.1736 28.0812C24.9157 28.2475 24.6193 28.3449 24.313 28.364C24.0066 28.3831 23.7005 28.3233 23.4238 28.1902L27.947 34.2559L37.8394 36.4096V36.4144C38.0695 36.2479 38.2568 36.0292 38.386 35.7763C38.5152 35.5233 38.5825 35.2434 38.5825 34.9594Z" fill="black"/>
<path opacity="0.1" d="M38.5225 35.4175L25.4073 27.9473L25.1736 28.0791C24.9158 28.2456 24.6195 28.3432 24.3131 28.3625C24.0068 28.3818 23.7006 28.3222 23.4238 28.1894L27.947 34.255L37.8394 36.4087V36.4135C38.1748 36.1704 38.4161 35.8191 38.5225 35.4187V35.4175Z" fill="black"/>
<path d="M10.2379 20.6837V20.6717H10.2259L10.1899 20.6477C10.0754 20.5774 9.98093 20.4787 9.91582 20.361C9.85072 20.2434 9.81715 20.111 9.81839 19.9766V34.9578C9.81808 35.194 9.86436 35.4279 9.9546 35.6462C10.0448 35.8644 10.1772 36.0627 10.3442 36.2297C10.5112 36.3967 10.7095 36.5291 10.9278 36.6194C11.1461 36.7096 11.38 36.7559 11.6161 36.7556H36.7846C36.9344 36.7541 37.0833 36.734 37.2281 36.6956C37.3032 36.6826 37.3759 36.6583 37.4438 36.6237C37.4693 36.6212 37.4939 36.6131 37.5157 36.5998C37.6138 36.5597 37.7064 36.5073 37.7914 36.444C37.8154 36.432 37.8273 36.432 37.8393 36.408L10.2379 20.6837Z" fill="#28A8EA"/>
<path opacity="0.1" d="M21.8034 30.3653V10.789C21.8021 10.3657 21.6334 9.96006 21.334 9.66073C21.0347 9.3614 20.6291 9.19267 20.2058 9.19141H12.2513V18.1274L10.2378 19.2756L10.2318 19.278L10.2175 19.2864C10.0961 19.3565 9.99529 19.4573 9.92523 19.5787C9.85517 19.7 9.81831 19.8377 9.81836 19.9779V31.9629H20.2058C20.6291 31.9616 21.0347 31.7929 21.334 31.4936C21.6334 31.1943 21.8021 30.7886 21.8034 30.3653Z" fill="black"/>
<path opacity="0.2" d="M20.6049 31.5626V11.9863C20.6036 11.563 20.4349 11.1573 20.1355 10.858C19.8362 10.5587 19.4306 10.3899 19.0073 10.3887H12.2513V18.1262L10.2378 19.2744L10.2318 19.2767L10.2175 19.2851C10.0961 19.3552 9.99529 19.456 9.92523 19.5774C9.85517 19.6988 9.81831 19.8365 9.81836 19.9767V33.1602H19.0073C19.4306 33.1589 19.8362 32.9902 20.1355 32.6908C20.4349 32.3915 20.6036 31.9859 20.6049 31.5626Z" fill="black"/>
<path opacity="0.2" d="M20.6049 29.1656V11.9863C20.6036 11.563 20.4349 11.1573 20.1355 10.858C19.8362 10.5587 19.4306 10.3899 19.0073 10.3887H12.2513V18.1262L10.2378 19.2744L10.2318 19.2767L10.2175 19.2851C10.0961 19.3552 9.99529 19.456 9.92523 19.5774C9.85517 19.6988 9.81831 19.8365 9.81836 19.9767V30.7632H19.0073C19.4306 30.7619 19.8362 30.5932 20.1355 30.2938C20.4349 29.9945 20.6036 29.5889 20.6049 29.1656Z" fill="black"/>
<path opacity="0.2" d="M19.4064 29.1656V11.9863C19.4051 11.563 19.2364 11.1573 18.937 10.858C18.6377 10.5587 18.2321 10.3899 17.8088 10.3887H12.2513V18.1262L10.2378 19.2744L10.2318 19.2767L10.2175 19.2851C10.0961 19.3552 9.99529 19.456 9.92523 19.5774C9.85517 19.6988 9.81831 19.8365 9.81836 19.9767V30.7632H17.8088C18.2321 30.7619 18.6377 30.5932 18.937 30.2938C19.2364 29.9945 19.4051 29.5889 19.4064 29.1656Z" fill="black"/>
<path d="M1.82807 10.3887H17.8089C18.2326 10.3887 18.6389 10.557 18.9385 10.8566C19.2381 11.1562 19.4065 11.5626 19.4065 11.9863V27.9671C19.4065 28.3908 19.2381 28.7971 18.9385 29.0967C18.6389 29.3964 18.2326 29.5647 17.8089 29.5647H1.82807C1.40436 29.5647 0.998003 29.3964 0.698395 29.0967C0.398787 28.7971 0.230469 28.3908 0.230469 27.9671L0.230469 11.9863C0.230469 11.5626 0.398787 11.1562 0.698395 10.8566C0.998003 10.557 1.40436 10.3887 1.82807 10.3887Z" fill="#0078D4"/>
<path d="M4.8641 16.9428C5.28861 16.0381 5.97394 15.281 6.83203 14.7687C7.78271 14.2245 8.86516 13.9533 9.96012 13.9849C10.974 13.9629 11.9744 14.22 12.8521 14.728C13.6783 15.2201 14.3437 15.9417 14.7673 16.805C15.2288 17.7565 15.4588 18.8038 15.4385 19.8611C15.4607 20.9656 15.2238 22.0599 14.7469 23.0564C14.3141 23.9504 13.6286 24.6979 12.7754 25.2065C11.8633 25.7307 10.8249 25.9947 9.77315 25.9699C8.73703 25.9946 7.71397 25.7347 6.81526 25.2184C5.98247 24.7255 5.30925 24.0032 4.87608 23.1378C4.41141 22.2003 4.17837 21.165 4.19653 20.1188C4.17644 19.0233 4.40467 17.9375 4.8641 16.9428ZM6.96147 22.046C7.18762 22.6179 7.57117 23.1141 8.06769 23.477C8.57364 23.8312 9.17974 24.0139 9.79712 23.9984C10.4548 24.0239 11.103 23.8351 11.644 23.4602C12.135 23.0975 12.5088 22.5987 12.7191 22.0256C12.9548 21.3872 13.071 20.7107 13.0618 20.0301C13.0691 19.3431 12.9597 18.6598 12.7382 18.0095C12.5428 17.4244 12.1824 16.9083 11.7003 16.5233C11.1736 16.1296 10.5273 15.9294 9.87023 15.9564C9.23942 15.9405 8.61975 16.1247 8.10005 16.4826C7.59378 16.8461 7.20138 17.3462 6.96866 17.9244C6.45386 19.2499 6.45087 20.7196 6.96027 22.0472L6.96147 22.046Z" fill="white"/>
</svg>
