<svg width="40" height="40" viewBox="0 0 40 40" fill="none" xmlns="http://www.w3.org/2000/svg">
<path d="M33.1642 7.85547C33.1366 7.65535 32.9608 7.54474 32.8154 7.5326C32.6704 7.52045 29.6002 7.2938 29.6002 7.2938C29.6002 7.2938 27.468 5.18488 27.2341 4.95151C26.9998 4.71815 26.5426 4.78911 26.3651 4.84122C26.3388 4.84889 25.8992 4.98412 25.1718 5.20821C24.4594 3.16643 23.2026 1.28991 20.9911 1.28991C20.9301 1.28991 20.8672 1.29247 20.8043 1.29599C20.1754 0.46738 19.3963 0.107422 18.7234 0.107422C13.5721 0.107422 11.1109 6.52305 10.3392 9.78345C8.33759 10.4014 6.91546 10.8406 6.73384 10.8975C5.61654 11.2466 5.58125 11.2818 5.43461 12.3307C5.3239 13.1247 2.40039 35.6493 2.40039 35.6493L25.1811 39.9017L37.5246 37.2413C37.5246 37.2413 33.1915 8.05559 33.1642 7.85547ZM23.9127 5.5963C23.3405 5.77277 22.6901 5.9732 21.9851 6.19059C21.9858 6.05536 21.9864 5.92206 21.9864 5.7766C21.9864 4.50748 21.8096 3.48579 21.526 2.67572C22.6654 2.8183 23.4243 4.1098 23.9127 5.5963ZM20.1125 2.92731C20.4292 3.71819 20.6352 4.85305 20.6352 6.38463C20.6352 6.46295 20.6346 6.53456 20.6339 6.60713C19.3803 6.99394 18.0181 7.414 16.6528 7.83533C17.4194 4.8879 18.8563 3.46437 20.1125 2.92731ZM18.5819 1.48396C18.8043 1.48396 19.0283 1.55908 19.2426 1.70613C17.5917 2.48008 15.8221 4.42948 15.0747 8.3222C13.9825 8.65914 12.9149 8.98841 11.9279 9.29307C12.8032 6.32389 14.8819 1.48396 18.5819 1.48396Z" fill="#95BF46"/>
<path d="M32.8147 7.53244C32.6696 7.52029 29.5995 7.29364 29.5995 7.29364C29.5995 7.29364 27.4673 5.18472 27.2333 4.95135C27.1457 4.8644 27.0276 4.81996 26.9041 4.80078L25.1816 39.9012L37.5239 37.2411C37.5239 37.2411 33.1907 8.05543 33.1635 7.85531C33.1359 7.65519 32.96 7.54458 32.8147 7.53244Z" fill="#5E8E3E"/>
<path d="M20.9919 14.3267L19.47 18.837C19.47 18.837 18.1364 18.128 16.5018 18.128C14.1055 18.128 13.9849 19.6263 13.9849 20.0039C13.9849 22.0639 19.375 22.8532 19.375 27.6784C19.375 31.4746 16.9581 33.9192 13.6993 33.9192C9.78877 33.9192 7.78906 31.4944 7.78906 31.4944L8.83609 28.0479C8.83609 28.0479 10.8916 29.8062 12.6263 29.8062C13.7596 29.8062 14.2207 28.9172 14.2207 28.2676C14.2207 25.5803 9.79872 25.4605 9.79872 21.0451C9.79872 17.3288 12.4761 13.7324 17.8807 13.7324C19.9632 13.7324 20.9919 14.3267 20.9919 14.3267Z" fill="white"/>
</svg>
