<svg width="40" height="40" viewBox="0 0 40 40" fill="none" xmlns="http://www.w3.org/2000/svg">
<g clip-path="url(#clip0_643_921)">
<path fill-rule="evenodd" clip-rule="evenodd" d="M86.455 10.588L86.0775 8.79555H80.8325V30.0505H86.8925V15.6255C88.3262 13.7505 90.745 14.1155 91.515 14.3543V8.79805C90.7075 8.50805 87.8737 7.97555 86.455 10.5855V10.588ZM74.2925 3.53055L68.3725 4.78805L68.3475 24.2405C68.3475 27.828 71.045 30.4818 74.645 30.4818C76.6263 30.4818 78.09 30.1043 78.9012 29.678V24.7405C78.1237 25.0505 74.2975 26.163 74.2975 22.5905V13.9655H78.9012V8.7943H74.2975L74.2925 3.53055ZM57.875 14.963C57.875 14.0155 58.6625 13.6505 59.935 13.6505C62.0414 13.6961 64.1084 14.2311 65.9725 15.213V9.50055C64.0504 8.74479 62.0002 8.36787 59.935 8.39055C55.03 8.39055 51.7387 10.9605 51.7387 15.2505C51.7387 21.963 60.9575 20.873 60.9575 23.7668C60.9575 24.8993 59.9825 25.2493 58.6287 25.2493C56.6213 25.2493 54.0288 24.4193 51.995 23.3118V29.0993C54.0886 30.01 56.3457 30.485 58.6287 30.4955C63.67 30.4955 67.145 28.0055 67.145 23.6393C67.145 16.3943 57.8737 17.6893 57.8737 14.9605L57.875 14.963ZM17.35 11.8943C17.35 10.1818 18.775 9.5193 21.0775 9.5193C24.8882 9.60163 28.6276 10.5692 32 12.3455V2.00805C28.5225 0.641438 24.8136 -0.0398172 21.0775 0.00179769C12.2025 0.00179769 6.25 4.65055 6.25 12.413C6.25 24.558 22.9275 22.5855 22.9275 27.8205C22.9275 29.868 21.1775 30.503 18.715 30.503C15.0837 30.503 10.3938 29.0005 6.715 27.0005V37.473C10.5025 39.121 14.5858 39.981 18.7162 40.0005C27.8375 40.0005 34.125 35.4943 34.125 27.5968C34.125 14.4893 17.35 16.8305 17.35 11.8968V11.8943Z" fill="#6772E5"/>
</g>
<defs>
<clipPath id="clip0_643_921">
<rect width="40" height="40" fill="white"/>
</clipPath>
</defs>
</svg>
