<svg width="40" height="40" viewBox="0 0 40 40" fill="none" xmlns="http://www.w3.org/2000/svg">
<path d="M39.1166 10.3867C38.6497 8.66126 37.3019 7.31344 35.5765 6.84655C32.4725 6 19.9794 6 19.9794 6C19.9794 6 7.48639 6.02565 4.38238 6.8722C2.65696 7.33909 1.30915 8.68691 0.842255 10.4123C-0.0966459 15.9277 -0.460919 24.3317 0.867909 29.6265C1.3348 31.3519 2.68262 32.6997 4.40803 33.1666C7.51205 34.0131 20.0051 34.0131 20.0051 34.0131C20.0051 34.0131 32.4981 34.0131 35.6021 33.1666C37.3275 32.6997 38.6754 31.3519 39.1422 29.6265C40.1325 24.1034 40.4377 15.7045 39.1166 10.3867Z" fill="#FF0000"/>
<path d="M16.0039 26.0095L26.3677 20.0067L16.0039 14.0039V26.0095Z" fill="white"/>
</svg>
