<svg width="32" height="32" viewBox="0 0 32 32" fill="none" xmlns="http://www.w3.org/2000/svg">
<path d="M-0.382812 16.896L6.46519 11.68L-0.382812 6.496L9.56919 0L16.0652 5.568L22.7212 0L32.3852 6.176L26.0492 11.456L32.3852 16.896L22.5612 22.816L16.0652 17.824L9.56919 22.816L-0.382812 16.896ZM6.43319 24.928V23.104L9.44119 24.864L15.9372 19.904L15.9692 19.936V31.296L6.43319 24.928ZM6.59319 11.616L16.0012 17.536L25.4732 11.264L16.0652 5.856L6.59319 11.616ZM15.9692 31.296L16.0012 19.936L16.0652 19.904L22.5292 24.864L25.7292 22.944V24.96L15.9692 31.296Z" fill="black"/>
</svg>
